<mxfile host="app.diagrams.net" modified="2024-05-25T12:09:06.788Z" agent="Mozilla/5.0 (Windows NT 10.0; Win64; x64) AppleWebKit/537.36 (KHTML, like Gecko) Chrome/122.0.0.0 Safari/537.36" etag="UVOB2kt5fZl5mOVcovMv" version="24.4.8" type="device">
  <diagram name="Seite-1" id="Dn3hy9x0jtzQikU4hQEX">
    <mxGraphModel dx="1781" dy="592" grid="1" gridSize="10" guides="1" tooltips="1" connect="1" arrows="1" fold="1" page="1" pageScale="1" pageWidth="827" pageHeight="1169" math="0" shadow="0">
      <root>
        <mxCell id="0" />
        <mxCell id="1" parent="0" />
        <mxCell id="hcAbWwhuxu3YOJOGwjuc-34" value="&lt;div&gt;&amp;lt;&amp;lt;entity&amp;gt;&amp;gt;&lt;/div&gt;Projektausschreibung" style="html=1;whiteSpace=wrap;" vertex="1" parent="1">
          <mxGeometry x="315" y="190" width="150" height="50" as="geometry" />
        </mxCell>
        <mxCell id="hcAbWwhuxu3YOJOGwjuc-41" value="" style="edgeStyle=orthogonalEdgeStyle;rounded=0;orthogonalLoop=1;jettySize=auto;html=1;" edge="1" parent="1" source="hcAbWwhuxu3YOJOGwjuc-35" target="hcAbWwhuxu3YOJOGwjuc-34">
          <mxGeometry relative="1" as="geometry" />
        </mxCell>
        <mxCell id="hcAbWwhuxu3YOJOGwjuc-44" value="" style="edgeStyle=orthogonalEdgeStyle;rounded=0;orthogonalLoop=1;jettySize=auto;html=1;entryX=1;entryY=0.5;entryDx=0;entryDy=0;exitX=0;exitY=0.5;exitDx=0;exitDy=0;" edge="1" parent="1" source="hcAbWwhuxu3YOJOGwjuc-35" target="hcAbWwhuxu3YOJOGwjuc-36">
          <mxGeometry relative="1" as="geometry">
            <mxPoint x="285" y="225" as="targetPoint" />
          </mxGeometry>
        </mxCell>
        <mxCell id="hcAbWwhuxu3YOJOGwjuc-35" value="&amp;lt;&amp;lt;entity&amp;gt;&amp;gt;&lt;div&gt;Unternehmer&lt;/div&gt;" style="html=1;whiteSpace=wrap;" vertex="1" parent="1">
          <mxGeometry x="335" y="20" width="110" height="50" as="geometry" />
        </mxCell>
        <mxCell id="hcAbWwhuxu3YOJOGwjuc-36" value="&lt;div&gt;&amp;lt;&amp;lt;entity&amp;gt;&amp;gt;&lt;/div&gt;Bankdaten" style="html=1;whiteSpace=wrap;" vertex="1" parent="1">
          <mxGeometry x="90" y="20" width="110" height="50" as="geometry" />
        </mxCell>
        <mxCell id="hcAbWwhuxu3YOJOGwjuc-52" value="" style="edgeStyle=orthogonalEdgeStyle;rounded=0;orthogonalLoop=1;jettySize=auto;html=1;dashed=1;entryX=0.25;entryY=1;entryDx=0;entryDy=0;" edge="1" parent="1" source="hcAbWwhuxu3YOJOGwjuc-37" target="hcAbWwhuxu3YOJOGwjuc-39">
          <mxGeometry relative="1" as="geometry" />
        </mxCell>
        <mxCell id="hcAbWwhuxu3YOJOGwjuc-57" value="" style="edgeStyle=orthogonalEdgeStyle;rounded=0;orthogonalLoop=1;jettySize=auto;html=1;dashed=1;" edge="1" parent="1" source="hcAbWwhuxu3YOJOGwjuc-37" target="hcAbWwhuxu3YOJOGwjuc-40">
          <mxGeometry relative="1" as="geometry" />
        </mxCell>
        <mxCell id="hcAbWwhuxu3YOJOGwjuc-37" value="&amp;lt;&amp;lt;boundary&amp;gt;&amp;gt;&lt;div&gt;Eingabe Projektausschreibung&lt;/div&gt;" style="html=1;whiteSpace=wrap;" vertex="1" parent="1">
          <mxGeometry x="210" y="520" width="140" height="50" as="geometry" />
        </mxCell>
        <mxCell id="hcAbWwhuxu3YOJOGwjuc-48" value="" style="edgeStyle=orthogonalEdgeStyle;rounded=0;orthogonalLoop=1;jettySize=auto;html=1;dashed=1;" edge="1" parent="1" source="hcAbWwhuxu3YOJOGwjuc-39" target="hcAbWwhuxu3YOJOGwjuc-47">
          <mxGeometry relative="1" as="geometry" />
        </mxCell>
        <mxCell id="hcAbWwhuxu3YOJOGwjuc-49" value="" style="edgeStyle=orthogonalEdgeStyle;rounded=0;orthogonalLoop=1;jettySize=auto;html=1;dashed=1;" edge="1" parent="1" source="hcAbWwhuxu3YOJOGwjuc-39" target="hcAbWwhuxu3YOJOGwjuc-46">
          <mxGeometry relative="1" as="geometry" />
        </mxCell>
        <mxCell id="hcAbWwhuxu3YOJOGwjuc-54" value="" style="edgeStyle=orthogonalEdgeStyle;rounded=0;orthogonalLoop=1;jettySize=auto;html=1;entryX=1;entryY=0.5;entryDx=0;entryDy=0;dashed=1;" edge="1" parent="1" source="hcAbWwhuxu3YOJOGwjuc-39" target="hcAbWwhuxu3YOJOGwjuc-37">
          <mxGeometry relative="1" as="geometry">
            <mxPoint x="390" y="485" as="targetPoint" />
          </mxGeometry>
        </mxCell>
        <mxCell id="hcAbWwhuxu3YOJOGwjuc-70" value="" style="edgeStyle=orthogonalEdgeStyle;rounded=0;orthogonalLoop=1;jettySize=auto;html=1;entryX=0.5;entryY=1;entryDx=0;entryDy=0;dashed=1;" edge="1" parent="1" source="hcAbWwhuxu3YOJOGwjuc-39" target="hcAbWwhuxu3YOJOGwjuc-34">
          <mxGeometry relative="1" as="geometry">
            <mxPoint x="390" y="285" as="targetPoint" />
          </mxGeometry>
        </mxCell>
        <mxCell id="hcAbWwhuxu3YOJOGwjuc-39" value="&lt;div&gt;&amp;lt;&amp;lt;control&amp;gt;&amp;gt;&lt;/div&gt;Projektausschreibung einstellen" style="html=1;whiteSpace=wrap;" vertex="1" parent="1">
          <mxGeometry x="290" y="360" width="200" height="50" as="geometry" />
        </mxCell>
        <mxCell id="hcAbWwhuxu3YOJOGwjuc-65" value="" style="edgeStyle=orthogonalEdgeStyle;rounded=0;orthogonalLoop=1;jettySize=auto;html=1;exitX=0.828;exitY=1.01;exitDx=0;exitDy=0;exitPerimeter=0;entryX=1;entryY=0.5;entryDx=0;entryDy=0;dashed=1;" edge="1" parent="1" source="hcAbWwhuxu3YOJOGwjuc-39" target="hcAbWwhuxu3YOJOGwjuc-40">
          <mxGeometry relative="1" as="geometry">
            <mxPoint x="614" y="695" as="targetPoint" />
            <Array as="points">
              <mxPoint x="456" y="440" />
              <mxPoint x="470" y="440" />
              <mxPoint x="470" y="540" />
              <mxPoint x="540" y="540" />
              <mxPoint x="540" y="695" />
            </Array>
          </mxGeometry>
        </mxCell>
        <mxCell id="hcAbWwhuxu3YOJOGwjuc-40" value="&amp;lt;&amp;lt;DTO&amp;gt;&amp;gt;&lt;div&gt;ProjektausschreibungDTO&lt;/div&gt;" style="html=1;whiteSpace=wrap;" vertex="1" parent="1">
          <mxGeometry x="334" y="670" width="160" height="50" as="geometry" />
        </mxCell>
        <mxCell id="hcAbWwhuxu3YOJOGwjuc-42" value="0..*" style="text;html=1;align=center;verticalAlign=middle;resizable=0;points=[];autosize=1;strokeColor=none;fillColor=none;" vertex="1" parent="1">
          <mxGeometry x="295" y="20" width="40" height="30" as="geometry" />
        </mxCell>
        <mxCell id="hcAbWwhuxu3YOJOGwjuc-45" value="0..*" style="text;html=1;align=center;verticalAlign=middle;resizable=0;points=[];autosize=1;strokeColor=none;fillColor=none;" vertex="1" parent="1">
          <mxGeometry x="390" y="70" width="40" height="30" as="geometry" />
        </mxCell>
        <mxCell id="hcAbWwhuxu3YOJOGwjuc-63" value="" style="edgeStyle=orthogonalEdgeStyle;rounded=0;orthogonalLoop=1;jettySize=auto;html=1;dashed=1;" edge="1" parent="1" source="hcAbWwhuxu3YOJOGwjuc-46" target="hcAbWwhuxu3YOJOGwjuc-59">
          <mxGeometry relative="1" as="geometry" />
        </mxCell>
        <mxCell id="hcAbWwhuxu3YOJOGwjuc-75" value="" style="edgeStyle=orthogonalEdgeStyle;rounded=0;orthogonalLoop=1;jettySize=auto;html=1;entryX=0.5;entryY=1;entryDx=0;entryDy=0;dashed=1;" edge="1" parent="1" source="hcAbWwhuxu3YOJOGwjuc-46" target="hcAbWwhuxu3YOJOGwjuc-36">
          <mxGeometry relative="1" as="geometry">
            <mxPoint x="140" y="280" as="targetPoint" />
          </mxGeometry>
        </mxCell>
        <mxCell id="hcAbWwhuxu3YOJOGwjuc-46" value="&amp;lt;&amp;lt;control&amp;gt;&amp;gt;&lt;div&gt;Bankdaten ermitteln&lt;/div&gt;" style="html=1;whiteSpace=wrap;" vertex="1" parent="1">
          <mxGeometry x="85" y="360" width="120" height="50" as="geometry" />
        </mxCell>
        <mxCell id="hcAbWwhuxu3YOJOGwjuc-47" value="&amp;lt;&amp;lt;control&amp;gt;&amp;gt;&lt;div&gt;Bankeinzug durchfÃ¼hren&lt;/div&gt;" style="html=1;whiteSpace=wrap;" vertex="1" parent="1">
          <mxGeometry x="580" y="360" width="160" height="50" as="geometry" />
        </mxCell>
        <mxCell id="hcAbWwhuxu3YOJOGwjuc-50" value="&amp;lt;&amp;lt;include&amp;gt;&amp;gt;" style="text;html=1;align=center;verticalAlign=middle;resizable=0;points=[];autosize=1;strokeColor=none;fillColor=none;" vertex="1" parent="1">
          <mxGeometry x="200" y="360" width="90" height="30" as="geometry" />
        </mxCell>
        <mxCell id="hcAbWwhuxu3YOJOGwjuc-51" value="&amp;lt;&amp;lt;include&amp;gt;&amp;gt;" style="text;html=1;align=center;verticalAlign=middle;resizable=0;points=[];autosize=1;strokeColor=none;fillColor=none;" vertex="1" parent="1">
          <mxGeometry x="490" y="360" width="90" height="30" as="geometry" />
        </mxCell>
        <mxCell id="hcAbWwhuxu3YOJOGwjuc-55" value="initiiert" style="text;html=1;align=center;verticalAlign=middle;resizable=0;points=[];autosize=1;strokeColor=none;fillColor=none;" vertex="1" parent="1">
          <mxGeometry x="390" y="460" width="60" height="30" as="geometry" />
        </mxCell>
        <mxCell id="hcAbWwhuxu3YOJOGwjuc-56" value="liefertEingabe" style="text;html=1;align=center;verticalAlign=middle;resizable=0;points=[];autosize=1;strokeColor=none;fillColor=none;" vertex="1" parent="1">
          <mxGeometry x="180" y="468" width="100" height="30" as="geometry" />
        </mxCell>
        <mxCell id="hcAbWwhuxu3YOJOGwjuc-58" value="produziert" style="text;html=1;align=center;verticalAlign=middle;resizable=0;points=[];autosize=1;strokeColor=none;fillColor=none;" vertex="1" parent="1">
          <mxGeometry x="275" y="590" width="80" height="30" as="geometry" />
        </mxCell>
        <mxCell id="hcAbWwhuxu3YOJOGwjuc-59" value="&amp;lt;&amp;lt;DTO&amp;gt;&amp;gt;&lt;div&gt;BankdatenDTO&lt;/div&gt;" style="html=1;whiteSpace=wrap;" vertex="1" parent="1">
          <mxGeometry x="-120" y="360" width="110" height="50" as="geometry" />
        </mxCell>
        <mxCell id="hcAbWwhuxu3YOJOGwjuc-61" value="produziert" style="text;html=1;align=center;verticalAlign=middle;resizable=0;points=[];autosize=1;strokeColor=none;fillColor=none;" vertex="1" parent="1">
          <mxGeometry x="-5" y="360" width="80" height="30" as="geometry" />
        </mxCell>
        <mxCell id="hcAbWwhuxu3YOJOGwjuc-66" value="verifiziert_und_speichert_in_DB" style="text;html=1;align=center;verticalAlign=middle;resizable=0;points=[];autosize=1;strokeColor=none;fillColor=none;" vertex="1" parent="1">
          <mxGeometry x="540" y="598" width="190" height="30" as="geometry" />
        </mxCell>
        <mxCell id="hcAbWwhuxu3YOJOGwjuc-71" value="erstellt" style="text;html=1;align=center;verticalAlign=middle;resizable=0;points=[];autosize=1;strokeColor=none;fillColor=none;" vertex="1" parent="1">
          <mxGeometry x="390" y="288" width="60" height="30" as="geometry" />
        </mxCell>
        <mxCell id="hcAbWwhuxu3YOJOGwjuc-76" value="zeigt_an" style="text;html=1;align=center;verticalAlign=middle;resizable=0;points=[];autosize=1;strokeColor=none;fillColor=none;" vertex="1" parent="1">
          <mxGeometry x="145" y="188" width="70" height="30" as="geometry" />
        </mxCell>
      </root>
    </mxGraphModel>
  </diagram>
</mxfile>
